<?xml version="1.0" encoding="UTF-8" standalone="no"?> <!DOCTYPE svg PUBLIC "-//W3C//DTD SVG 1.1//EN" "http://www.w3.org/Graphics/SVG/1.1/DTD/svg11.dtd"><svg width="100%" height="100%" viewBox="0 0 310 93" version="1.1" xmlns="http://www.w3.org/2000/svg" xmlns:xlink="http://www.w3.org/1999/xlink" xml:space="preserve" xmlns:serif="http://www.serif.com/" style="fill-rule:evenodd;clip-rule:evenodd;stroke-linejoin:round;stroke-miterlimit:2"><g id="Logo" transform="matrix(0.824049,0,0,0.824049,-402.663,-423.877)"><g transform="matrix(1.21352,0,0,1.21352,488.64,514.383)"><path d="M283.589,66.054C283.589,61.677 284.631,58.153 286.714,55.481C288.797,52.809 291.605,51.473 295.138,51.473C298.267,51.473 300.701,52.545 302.442,54.69L302.758,52.001L309.666,52.001L309.666,79.581C309.666,82.077 309.099,84.248 307.966,86.093C306.832,87.939 305.236,89.345 303.18,90.312C301.123,91.279 298.715,91.762 295.955,91.762C293.863,91.762 291.824,91.345 289.838,90.51C287.852,89.675 286.349,88.598 285.329,87.28L288.704,82.639C290.603,84.766 292.905,85.83 295.612,85.83C297.634,85.83 299.207,85.289 300.332,84.208C301.457,83.127 302.02,81.593 302.02,79.607L302.02,78.078C300.262,80.064 297.95,81.057 295.085,81.057C291.657,81.057 288.884,79.717 286.766,77.036C284.648,74.356 283.589,70.8 283.589,66.371L283.589,66.054ZM179.128,80.53C178.776,79.844 178.521,78.992 178.363,77.972C176.517,80.029 174.118,81.057 171.165,81.057C168.37,81.057 166.054,80.249 164.217,78.631C162.38,77.014 161.461,74.975 161.461,72.514C161.461,69.491 162.582,67.17 164.823,65.553C167.065,63.936 170.303,63.119 174.54,63.101L178.046,63.101L178.046,61.466C178.046,60.148 177.708,59.093 177.031,58.302C176.355,57.511 175.287,57.116 173.828,57.116C172.545,57.116 171.538,57.423 170.809,58.039C170.079,58.654 169.714,59.498 169.714,60.57L162.094,60.57C162.094,58.918 162.604,57.388 163.624,55.982C164.643,54.576 166.085,53.473 167.948,52.673C169.811,51.873 171.903,51.473 174.223,51.473C177.739,51.473 180.529,52.356 182.595,54.123C184.66,55.89 185.693,58.373 185.693,61.572L185.693,73.938C185.711,76.645 186.088,78.693 186.827,80.082L186.827,80.53L179.128,80.53ZM146.808,81.057C142.624,81.057 139.218,79.774 136.59,77.208C133.962,74.641 132.648,71.222 132.648,66.951L132.648,66.212C132.648,63.347 133.202,60.785 134.31,58.526C135.417,56.268 136.986,54.527 139.016,53.306C141.046,52.084 143.362,51.473 145.964,51.473C149.866,51.473 152.938,52.704 155.179,55.165C157.42,57.626 158.541,61.115 158.541,65.632L158.541,68.744L140.374,68.744C140.62,70.607 141.363,72.101 142.602,73.226C143.841,74.351 145.41,74.914 147.309,74.914C150.244,74.914 152.538,73.85 154.19,71.723L157.935,75.916C156.792,77.533 155.245,78.794 153.294,79.699C151.343,80.605 149.181,81.057 146.808,81.057ZM248.718,80.53L241.071,80.53L241.071,52.001L248.718,52.001L248.718,80.53ZM207.308,59.146C206.271,59.005 205.357,58.935 204.566,58.935C201.683,58.935 199.793,59.911 198.897,61.862L198.897,80.53L191.276,80.53L191.276,52.001L198.475,52.001L198.686,55.402C200.215,52.783 202.333,51.473 205.04,51.473C205.884,51.473 206.675,51.587 207.413,51.816L207.308,59.146ZM217.716,52.001L217.954,55.296C219.993,52.748 222.726,51.473 226.154,51.473C229.177,51.473 231.427,52.361 232.904,54.136C234.38,55.912 235.136,58.566 235.171,62.099L235.171,80.53L227.551,80.53L227.551,62.284C227.551,60.667 227.2,59.493 226.497,58.764C225.794,58.034 224.625,57.669 222.99,57.669C220.845,57.669 219.237,58.584 218.165,60.412L218.165,80.53L210.545,80.53L210.545,52.001L217.716,52.001ZM261.737,52.001L261.974,55.296C264.013,52.748 266.747,51.473 270.174,51.473C273.198,51.473 275.448,52.361 276.924,54.136C278.401,55.912 279.157,58.566 279.192,62.099L279.192,80.53L271.572,80.53L271.572,62.284C271.572,60.667 271.22,59.493 270.517,58.764C269.814,58.034 268.645,57.669 267.01,57.669C264.866,57.669 263.257,58.584 262.185,60.412L262.185,80.53L254.565,80.53L254.565,52.001L261.737,52.001ZM113.117,74.175L129.913,74.175L129.913,80.53L105.207,80.53L105.207,42.139L113.117,42.139L113.117,74.175ZM172.826,75.23C173.951,75.23 174.988,74.98 175.937,74.479C176.886,73.978 177.589,73.305 178.046,72.461L178.046,67.557L175.199,67.557C171.384,67.557 169.354,68.876 169.108,71.512L169.082,71.96C169.082,72.91 169.416,73.692 170.084,74.307C170.752,74.922 171.666,75.23 172.826,75.23ZM291.209,66.608C291.209,69.192 291.728,71.218 292.765,72.686C293.802,74.153 295.226,74.887 297.036,74.887C299.357,74.887 301.018,74.017 302.02,72.277L302.02,60.28C301,58.54 299.357,57.669 297.089,57.669C295.261,57.669 293.824,58.417 292.778,59.911C291.732,61.405 291.209,63.637 291.209,66.608ZM145.938,57.643C144.426,57.643 143.2,58.153 142.259,59.172C141.319,60.192 140.717,61.651 140.453,63.549L151.053,63.549L151.053,62.943C151.018,61.255 150.561,59.95 149.682,59.027C148.803,58.105 147.555,57.643 145.938,57.643ZM240.623,44.618C240.623,43.475 241.006,42.535 241.77,41.796C242.535,41.058 243.576,40.689 244.895,40.689C246.195,40.689 247.233,41.058 248.006,41.796C248.779,42.535 249.166,43.475 249.166,44.618C249.166,45.778 248.775,46.727 247.993,47.465C247.211,48.204 246.178,48.573 244.895,48.573C243.611,48.573 242.579,48.204 241.797,47.465C241.014,46.727 240.623,45.778 240.623,44.618ZM133.789,39.789L130.545,39.789L108.476,6.935L108.476,39.789L105.207,39.789L105.207,1.398L108.476,1.398L130.572,34.278L130.572,1.398L133.789,1.398L133.789,39.789ZM154.052,37.817C151.627,37.817 149.434,37.22 147.474,36.024C145.514,34.829 143.989,33.163 142.899,31.028C141.809,28.892 141.264,26.497 141.264,23.843L141.264,22.709C141.264,19.967 141.796,17.497 142.86,15.3C143.923,13.102 145.404,11.375 147.302,10.118C149.201,8.862 151.257,8.233 153.472,8.233C156.935,8.233 159.682,9.415 161.712,11.78C163.742,14.144 164.757,17.374 164.757,21.47L164.757,23.236L144.402,23.236L144.402,23.843C144.402,27.077 145.329,29.771 147.184,31.924C149.038,34.077 151.372,35.154 154.184,35.154C155.872,35.154 157.361,34.846 158.653,34.231C159.945,33.616 161.119,32.632 162.173,31.278L164.151,32.781C161.831,36.138 158.465,37.817 154.052,37.817ZM177.46,30.724L177.935,33.177L178.568,30.593L185.423,8.761L188.112,8.761L194.889,30.408L195.627,33.414L196.234,30.645L202.087,8.761L205.357,8.761L197.051,37.29L194.361,37.29L187.031,14.667L186.689,13.111L186.346,14.693L179.148,37.29L176.458,37.29L168.179,8.761L171.422,8.761L177.46,30.724ZM153.472,10.923C151.099,10.923 149.1,11.793 147.474,13.533C145.848,15.273 144.859,17.611 144.507,20.547L161.62,20.547L161.62,20.204C161.532,17.462 160.75,15.229 159.273,13.507C157.797,11.784 155.863,10.923 153.472,10.923Z" style="fill:#fff;fill-rule:nonzero"/></g><g id="Shape-now" serif:id="Shape now" transform="matrix(1,0,0,1,0.385997,-3.80117)"><g transform="matrix(-0.865504,0.500902,0.500902,0.865504,729.702,-195.941)"><g transform="matrix(-1.05031,0.607855,0.607855,1.05031,1052.97,155.451)"><path d="M497.017,101.87C493.218,97.353 490.276,92.001 488.514,86.001L488.441,85.751L488.44,85.743C487.445,82.01 489.669,78.171 493.403,77.176C497.137,76.181 500.976,78.404 501.971,82.138L501.973,82.145C503.584,87.562 506.606,92.2 510.526,95.761C515.154,99.949 521.112,102.729 527.758,103.365L527.765,103.366C531.62,103.625 534.54,106.965 534.281,110.821C534.022,114.676 530.683,117.597 526.828,117.338L526.82,117.338L526.56,117.315C520.334,116.739 514.516,114.881 509.352,112.021L509.347,112.029C505.869,110.089 502.664,107.692 499.821,104.903L499.783,104.865L499.769,104.851L499.727,104.81C498.779,103.873 497.873,102.893 497.013,101.874L497.017,101.87Z" style="fill:#25a18e"/></g><g transform="matrix(1.21352,-0.000422225,0.000422225,1.21352,-103.764,466.32)"><path d="M497.017,101.87C493.218,97.353 490.276,92.001 488.514,86.001L488.441,85.751L488.44,85.743C487.445,82.01 489.669,78.171 493.403,77.176C497.137,76.181 500.976,78.404 501.971,82.138L501.973,82.145C503.584,87.562 506.606,92.2 510.526,95.761C515.154,99.949 521.112,102.729 527.758,103.365L527.765,103.366C531.62,103.625 534.54,106.965 534.281,110.821C534.022,114.676 530.683,117.597 526.828,117.338L526.82,117.338L526.56,117.315C520.334,116.739 514.516,114.881 509.352,112.021L509.347,112.029C505.869,110.089 502.664,107.692 499.821,104.903L499.783,104.865L499.769,104.851L499.727,104.81C498.779,103.873 497.873,102.893 497.013,101.874L497.017,101.87Z" style="fill:#ff7900"/></g></g><g transform="matrix(1.23388,0,0,1.23388,-94.8463,465.105)"><path d="M514.713,49.493C527.74,49.493 538.317,60.07 538.317,73.097C538.317,86.124 527.74,96.701 514.713,96.701C501.686,96.701 491.109,86.124 491.109,73.097C491.109,60.07 501.686,49.493 514.713,49.493ZM514.713,63.262C520.141,63.262 524.548,67.669 524.548,73.097C524.548,78.525 520.141,82.932 514.713,82.932C509.285,82.932 504.878,78.525 504.878,73.097C504.878,67.669 509.285,63.262 514.713,63.262Z" style="fill:#005eb8"/></g></g></g></svg>